<svg width="92" height="24" viewBox="0 0 92 24" fill="none" xmlns="http://www.w3.org/2000/svg">
<path d="M43.8904 16.0364C43.8904 16.787 44.0359 17.363 44.3269 17.7644C44.635 18.1659 45.2084 18.3666 46.0471 18.3666H47.4078C47.5961 18.3666 47.7587 18.4364 47.8956 18.5761C48.0326 18.7157 48.101 18.8815 48.101 19.0735V19.9114C48.101 20.1034 48.0326 20.2692 47.8956 20.4088C47.7587 20.5484 47.5961 20.6183 47.4078 20.6183H45.7903C44.3354 20.6183 43.2657 20.2343 42.581 19.4663C41.8964 18.6808 41.5541 17.5375 41.5541 16.0364V9.25535H39.6541C39.4659 9.25535 39.3033 9.18553 39.1663 9.0459C39.0294 8.90626 38.9609 8.74044 38.9609 8.54844V7.71062C38.9609 7.51862 39.0294 7.35281 39.1663 7.21317C39.3033 7.07353 39.4659 7.00371 39.6541 7.00371H41.5541V2.73608C41.5541 2.54408 41.6225 2.37826 41.7594 2.23862C41.8964 2.09899 42.059 2.02917 42.2473 2.02917H43.1972C43.3855 2.02917 43.5481 2.09899 43.685 2.23862C43.822 2.37826 43.8904 2.54408 43.8904 2.73608V7.00371H47.1511C47.3394 7.00371 47.502 7.07353 47.6389 7.21317C47.7758 7.35281 47.8443 7.51862 47.8443 7.71062V8.54844C47.8443 8.74044 47.7758 8.90626 47.6389 9.0459C47.502 9.18553 47.3394 9.25535 47.1511 9.25535H43.8904V16.0364Z" fill="white"/>
<path d="M50.5498 7.71057C50.5498 7.51857 50.6183 7.35275 50.7552 7.21312C50.8921 7.07348 51.0547 7.00366 51.243 7.00366H52.193C52.3812 7.00366 52.5439 7.07348 52.6808 7.21312C52.8177 7.35275 52.8862 7.51857 52.8862 7.71057V14.6226C52.8862 15.9491 53.1772 16.9528 53.7591 17.6335C54.3582 18.2968 55.2225 18.6284 56.3522 18.6284C57.4477 18.6284 58.2949 18.288 58.894 17.6073C59.5102 16.9266 59.8183 15.9317 59.8183 14.6226V7.71057C59.8183 7.51857 59.8867 7.35275 60.0237 7.21312C60.1606 7.07348 60.3232 7.00366 60.5115 7.00366H61.4614C61.6497 7.00366 61.8123 7.07348 61.9492 7.21312C62.0862 7.35275 62.1546 7.51857 62.1546 7.71057V19.9113C62.1546 20.1033 62.0862 20.2691 61.9492 20.4088C61.8123 20.5484 61.6497 20.6182 61.4614 20.6182H60.5115C60.3232 20.6182 60.1606 20.5484 60.0237 20.4088C59.8867 20.2691 59.8183 20.1033 59.8183 19.9113V19.0997C58.9282 20.2866 57.6445 20.88 55.9671 20.88C54.3239 20.88 53.006 20.3564 52.0132 19.3091C51.0376 18.2618 50.5498 16.8306 50.5498 15.0153V7.71057Z" fill="white"/>
<path d="M77.8586 19.9113C77.8586 20.1033 77.7902 20.2691 77.6533 20.4087C77.5163 20.5484 77.3537 20.6182 77.1654 20.6182H76.2155C76.0272 20.6182 75.8646 20.5484 75.7277 20.4087C75.5907 20.2691 75.5223 20.1033 75.5223 19.9113V12.9993C75.5223 11.6902 75.2056 10.6953 74.5723 10.0145C73.939 9.33382 73.0575 8.99346 71.9279 8.99346C70.8153 8.99346 69.9338 9.33382 69.2834 10.0145C68.6501 10.6953 68.3334 11.6902 68.3334 12.9993V19.9113C68.3334 20.1033 68.265 20.2691 68.128 20.4087C67.9911 20.5484 67.8285 20.6182 67.6402 20.6182H66.6903C66.502 20.6182 66.3394 20.5484 66.2025 20.4087C66.0655 20.2691 65.9971 20.1033 65.9971 19.9113V7.71055C65.9971 7.51855 66.0655 7.35273 66.2025 7.21309C66.3394 7.07346 66.502 7.00364 66.6903 7.00364H67.6402C67.8285 7.00364 67.9911 7.07346 68.128 7.21309C68.265 7.35273 68.3334 7.51855 68.3334 7.71055V8.52218C68.71 8.016 69.2235 7.59709 69.8739 7.26546C70.5414 6.91637 71.3545 6.74182 72.313 6.74182C73.3913 6.74182 74.3498 6.97746 75.1885 7.44873C76.0272 7.92 76.6776 8.60073 77.1398 9.49091C77.619 10.3636 77.8586 11.4022 77.8586 12.6065V19.9113Z" fill="white"/>
<path d="M89.5259 12.0044V11.6641C89.5259 10.8088 89.2435 10.1542 88.6787 9.70043C88.131 9.22916 87.4121 8.99352 86.522 8.99352C85.8374 8.99352 85.2982 9.1157 84.9045 9.36006C84.528 9.58697 84.1685 9.93606 83.8262 10.4073C83.7235 10.547 83.6123 10.643 83.4924 10.6953C83.3726 10.7477 83.21 10.7739 83.0046 10.7739H82.2344C82.0461 10.7739 81.875 10.7041 81.7209 10.5644C81.584 10.4248 81.5241 10.259 81.5412 10.067C81.5925 9.54334 81.8407 9.02843 82.2857 8.52225C82.7479 7.99861 83.3555 7.57097 84.1086 7.23934C84.8617 6.9077 85.6662 6.74188 86.522 6.74188C88.1138 6.74188 89.3976 7.1957 90.3732 8.10334C91.3659 9.01097 91.8623 10.2852 91.8623 11.9259V19.9113C91.8623 20.1033 91.7938 20.2692 91.6569 20.4088C91.52 20.5484 91.3574 20.6182 91.1691 20.6182H90.2191C90.0309 20.6182 89.8683 20.5484 89.7313 20.4088C89.5944 20.2692 89.5259 20.1033 89.5259 19.9113V18.8379C89.2521 19.4662 88.6701 19.9637 87.7801 20.3302C86.89 20.6968 86 20.8801 85.1099 20.8801C84.237 20.8801 83.4582 20.723 82.7736 20.4088C82.0889 20.0772 81.5583 19.6321 81.1817 19.0735C80.8223 18.515 80.6426 17.8866 80.6426 17.1884C80.6426 15.8793 81.1218 14.8582 82.0803 14.1252C83.0389 13.3746 84.314 12.8684 85.9058 12.6066L89.5259 12.0044ZM89.5259 14.099L86.4963 14.5964C85.3838 14.771 84.5194 15.059 83.9032 15.4604C83.287 15.8444 82.9789 16.3332 82.9789 16.9266C82.9789 17.363 83.1758 17.7557 83.5695 18.1048C83.9631 18.4539 84.5622 18.6284 85.3667 18.6284C86.599 18.6284 87.6003 18.2706 88.3706 17.555C89.1408 16.8393 89.5259 15.9055 89.5259 14.7535V14.099Z" fill="white"/>
<path fill-rule="evenodd" clip-rule="evenodd" d="M4.99219 14.1686V15.5388C4.99219 16.3766 5.46254 17.1403 6.20252 17.5042L7.41286 18.0992L9.54409 19.1471L13.1183 20.9044C14.2925 21.4818 15.6608 21.4818 16.8351 20.9044L20.4086 19.1474C20.4088 19.1473 20.409 19.1472 20.4093 19.1471L22.5406 18.0992L23.7509 17.5042C24.4908 17.1403 24.9613 16.3766 24.9613 15.5388V14.1686V11.4545V9.2727C24.9613 8.06772 24.0032 7.09088 22.8217 7.09088H20.6821H9.27126H7.13172C5.95008 7.09088 4.99219 8.06772 4.99219 9.2727V11.4545V14.1686Z" fill="#3E68B9"/>
<path d="M14.9767 2.18182L0 9.54546L14.9767 16.9091L29.9535 9.54546L14.9767 2.18182Z" fill="#274B90"/>
<path d="M15.1729 11.801C15.1729 12.1963 15.2524 12.4997 15.4113 12.7111C15.5796 12.9226 15.8928 13.0283 16.3509 13.0283H17.0941C17.1969 13.0283 17.2857 13.065 17.3605 13.1386C17.4353 13.2121 17.4727 13.2995 17.4727 13.4006V13.8419C17.4727 13.943 17.4353 14.0303 17.3605 14.1039C17.2857 14.1774 17.1969 14.2142 17.0941 14.2142H16.2106C15.416 14.2142 14.8317 14.0119 14.4577 13.6074C14.0838 13.1938 13.8968 12.5916 13.8968 11.801V8.2295H12.8591C12.7563 8.2295 12.6674 8.19274 12.5926 8.11919C12.5179 8.04564 12.4805 7.9583 12.4805 7.8572V7.41593C12.4805 7.3148 12.5179 7.22746 12.5926 7.15391C12.6674 7.08038 12.7563 7.0436 12.8591 7.0436H13.8968V4.79591C13.8968 4.69478 13.9342 4.60745 14.009 4.5339C14.0838 4.46035 14.1726 4.42358 14.2754 4.42358H14.7943C14.8971 4.42358 14.9859 4.46035 15.0607 4.5339C15.1355 4.60745 15.1729 4.69478 15.1729 4.79591V7.0436H16.9539C17.0567 7.0436 17.1455 7.08038 17.2203 7.15391C17.2951 7.22746 17.3325 7.3148 17.3325 7.41593V7.8572C17.3325 7.9583 17.2951 8.04564 17.2203 8.11919C17.1455 8.19274 17.0567 8.2295 16.9539 8.2295H15.1729V11.801Z" fill="white"/>
<path d="M6.5918 12.8174L8.54513 13.736V23.3125H6.5918V12.8174Z" fill="#FFB74B"/>
</svg>
