<svg width="146" height="146" viewBox="0 0 146 146" fill="none" xmlns="http://www.w3.org/2000/svg">
<g filter="url(#filter0_d_770_966)">
<circle cx="73" cy="67" r="65" fill="#E1EBFF"/>
</g>
<path d="M103 31V101C103 102.105 102.105 103 101 103H45.0085C43.9039 103 43.0085 102.105 43.0085 101V41.3333C42.6335 41.1219 54.8169 29 54.8169 29H101C102.105 29 103 29.8954 103 31Z" fill="white"/>
<path d="M43.0085 41.3333V101C43.0085 102.105 43.9039 103 45.0085 103H101C102.105 103 103 102.105 103 101V31C103 29.8954 102.105 29 101 29H54.8169M43.0085 41.3333C42.6335 41.1219 54.8169 29 54.8169 29M43.0085 41.3333H52.8169C53.9215 41.3333 54.8169 40.4428 54.8169 39.3382C54.8169 37.6717 54.8169 34.6132 54.8169 29" stroke="#274B90" stroke-width="2"/>
<path d="M50 50L68 50" stroke="#274B90" stroke-width="2" stroke-linecap="round"/>
<path d="M50 57H68" stroke="#274B90" stroke-width="2" stroke-linecap="round"/>
<path d="M50 84H82" stroke="#274B90" stroke-width="2" stroke-linecap="round"/>
<path d="M50 91H68" stroke="#274B90" stroke-width="2" stroke-linecap="round"/>
<path d="M50 67L96 67" stroke="#274B90" stroke-width="2" stroke-linecap="round"/>
<path d="M50 74L96 74" stroke="#274B90" stroke-width="2" stroke-linecap="round"/>
<path fill-rule="evenodd" clip-rule="evenodd" d="M84.3927 60.5C89.9105 60.5 94.0003 56.1119 94.0003 50.5317C94.0003 44.9514 89.9105 41 84.3927 41C78.875 41 75.0003 44.9198 75.0003 50.5C75.0003 56.0802 78.875 60.5 84.3927 60.5ZM84.3927 62.1193C90.5238 62.1193 95.8109 56.7322 95.8109 50.5317C95.8109 44.3312 90.5238 39.0244 84.3927 39.0244C78.2617 39.0244 72.9746 44.3312 72.9746 50.5317C72.9746 56.7322 78.2617 62.1193 84.3927 62.1193Z" fill="#274B90"/>
<path d="M77.7324 57.1001C77.7324 56.5202 78.1609 56.0302 78.7315 55.9662C83.0137 55.4868 85.7917 55.53 90.0645 55.9769C90.2778 55.9995 90.4801 56.0845 90.6465 56.2215C90.8128 56.3585 90.9362 56.5415 91.0014 56.7482C91.0666 56.9549 91.0709 57.1763 91.0137 57.3855C90.9566 57.5946 90.8404 57.7823 90.6795 57.9258C85.6369 62.371 82.7551 62.3098 78.0877 57.9303C77.8601 57.717 77.7324 57.4133 77.7324 57.1001Z" fill="#274B90"/>
<path fill-rule="evenodd" clip-rule="evenodd" d="M90.3073 56.7721C85.8384 56.3217 82.9518 56.2795 78.4835 56.7613C78.3364 56.778 78.2008 56.847 78.1027 56.9551C78.0045 57.0631 77.9507 57.2026 77.9516 57.3469C77.9516 57.51 78.0212 57.6646 78.1388 57.7718C80.5778 59.9763 82.4257 60.9725 84.2321 60.9788C86.045 60.9851 87.9924 59.9968 90.6315 57.7558C90.7153 57.6831 90.7756 57.5882 90.8052 57.4827C90.8347 57.3771 90.8322 57.2655 90.7978 57.1614C90.7635 57.0573 90.6988 56.9651 90.6118 56.8961C90.5247 56.8271 90.4189 56.7837 90.3073 56.7721ZM78.4835 55.2764C83.218 54.1359 85.5587 54.1359 90.24 55.2765C90.6118 55.3671 91.1371 55.5979 91.4009 55.8072C91.6648 56.0165 91.8293 56.4562 91.9325 56.7722C92.0357 57.0881 92.0236 57.4709 91.9325 57.7904C91.8414 58.1098 91.6566 58.3964 91.4009 58.6152C88.7238 60.8893 86.4979 61.6467 84.2321 61.6382C81.9599 61.6302 79.8253 60.8516 77.3436 58.6077C77.1659 58.4465 77.0243 58.2512 76.9275 58.0342C76.8308 57.8171 76.781 57.583 76.7813 57.3464C76.7804 56.9212 76.8809 56.2589 77.1714 55.9416C77.4618 55.6244 77.9516 55.4046 78.4835 55.2764Z" fill="#274B90"/>
<path d="M88.8329 48.3264C88.8329 49.5174 88.3651 50.6597 87.5324 51.5018C86.6996 52.344 85.5702 52.8171 84.3925 52.8171C83.2149 52.8171 82.0854 52.344 81.2527 51.5018C80.42 50.6597 79.9521 49.5174 79.9521 48.3264C79.9521 47.1354 80.42 45.9932 81.2527 45.1511C82.0854 44.3089 83.2149 43.8358 84.3925 43.8358C85.5702 43.8358 86.6996 44.3089 87.5324 45.1511C88.3651 45.9932 88.8329 47.1354 88.8329 48.3264Z" fill="#274B90"/>
<path fill-rule="evenodd" clip-rule="evenodd" d="M84.3925 51.6944C85.2758 51.6944 86.1229 51.3396 86.7474 50.708C87.372 50.0764 87.7228 49.2197 87.7228 48.3264C87.7228 47.4332 87.372 46.5765 86.7474 45.9449C86.1229 45.3133 85.2758 44.9584 84.3925 44.9584C83.5093 44.9584 82.6622 45.3133 82.0377 45.9449C81.4131 46.5765 81.0622 47.4332 81.0622 48.3264C81.0622 49.2197 81.4131 50.0764 82.0377 50.708C82.6622 51.3396 83.5093 51.6944 84.3925 51.6944ZM84.3925 52.8171C85.5702 52.8171 86.6996 52.344 87.5324 51.5018C88.3651 50.6597 88.8329 49.5174 88.8329 48.3264C88.8329 47.1354 88.3651 45.9932 87.5324 45.1511C86.6996 44.3089 85.5702 43.8358 84.3925 43.8358C83.2149 43.8358 82.0854 44.3089 81.2527 45.1511C80.42 45.9932 79.9521 47.1354 79.9521 48.3264C79.9521 49.5174 80.42 50.6597 81.2527 51.5018C82.0854 52.344 83.2149 52.8171 84.3925 52.8171Z" fill="#274B90"/>
<path fill-rule="evenodd" clip-rule="evenodd" d="M103 111C110.517 111 117 104.469 117 96.9513C117 89.4339 110.517 83 103 83C95.4826 83 89 89.4339 89 96.9513C89 104.469 95.4826 111 103 111Z" fill="#10B497"/>
<path d="M97 98.6875L101.412 103.1C101.85 103.538 102.577 103.476 102.935 102.971L110 93" stroke="white" stroke-width="3" stroke-linecap="round"/>
<defs>
<filter id="filter0_d_770_966" x="0" y="0" width="146" height="146" filterUnits="userSpaceOnUse" color-interpolation-filters="sRGB">
<feFlood flood-opacity="0" result="BackgroundImageFix"/>
<feColorMatrix in="SourceAlpha" type="matrix" values="0 0 0 0 0 0 0 0 0 0 0 0 0 0 0 0 0 0 127 0" result="hardAlpha"/>
<feOffset dy="6"/>
<feGaussianBlur stdDeviation="4"/>
<feComposite in2="hardAlpha" operator="out"/>
<feColorMatrix type="matrix" values="0 0 0 0 0.188235 0 0 0 0 0.364706 0 0 0 0 0.705882 0 0 0 0.1 0"/>
<feBlend mode="normal" in2="BackgroundImageFix" result="effect1_dropShadow_770_966"/>
<feBlend mode="normal" in="SourceGraphic" in2="effect1_dropShadow_770_966" result="shape"/>
</filter>
</defs>
</svg>
