<svg width="146" height="146" viewBox="0 0 146 146" fill="none" xmlns="http://www.w3.org/2000/svg">
<g filter="url(#filter0_d_846_164)">
<circle cx="73" cy="67" r="65" fill="#E1EBFF"/>
</g>
<path d="M33.9188 64.7246L29.9101 59.5173C29.6369 59.1625 29.6329 58.6693 29.9003 58.3102L40.9244 43.501C41.1986 43.1327 41.6883 42.9984 42.112 43.1754L60.8785 51.0143" stroke="#274B90" stroke-width="3" stroke-linecap="round"/>
<path d="M89.0697 52.2537L75.7612 50.4488C74.3808 50.2616 72.9783 50.5605 71.7943 51.2943L58.4333 59.5742C57.0028 60.4607 57.5209 62.6576 59.1968 62.8115C65.8648 63.4238 72.5774 62.2902 78.6746 59.5223L79.1832 59.2914C79.743 59.0373 80.3925 59.0779 80.9163 59.3998L93.2419 66.9748C97.719 69.7264 103.31 69.9343 107.979 67.523L115.138 63.8259C116.779 62.9781 117.272 60.8622 116.173 59.3766L108.246 48.6571C107.486 47.6289 106.157 47.1957 104.937 47.5782L98.354 49.6414L90.3701 52.1436C89.95 52.2753 89.506 52.3129 89.0697 52.2537Z" fill="#274B90" stroke="#274B90" stroke-width="2" stroke-linecap="round"/>
<path d="M98.1293 85.9091C102.455 84.7743 104.098 83.4408 104.436 80.3229C104.611 78.7042 103.65 77.2124 102.27 76.3473L100.847 75.4545M98.1293 85.9091L81.8231 75M98.1293 85.9091C98.9095 90.0228 97.7289 92.2212 93.7427 93.3035C92.7818 93.5644 91.7626 93.3837 90.8821 92.9187V92.9187M76.3876 83.1818L90.8821 92.9187M90.8821 92.9187C90.8914 96.4823 89.9289 98.0172 87.6044 99.1493C86.2817 99.7936 84.721 99.5599 83.463 98.797L80.5 97M70 99.5L73.9092 102.206C75.4923 103.302 77.5641 103.392 79.2359 102.437L79.4186 102.332C79.8045 102.112 80.172 101.85 80.445 101.499C81.4877 100.161 81.3889 98.7778 80.5 97M72.5 91.5L80.5 97" stroke="#274B90" stroke-width="3" stroke-linecap="round"/>
<path d="M43.9332 72.4505L44.583 72.65C46.825 73.3387 47.4452 76.2182 45.6854 77.7687L42.3727 80.6876L38.8505 84.0827C37.0015 85.8649 33.9525 85.3295 32.8214 83.0241C32.385 82.1347 32.575 81.0652 33.2909 80.3805L37.4194 76.4324L41.0184 73.113C41.803 72.3894 42.9129 72.1371 43.9332 72.4505Z" fill="#274B90" stroke="#274B90" stroke-width="3" stroke-linecap="round"/>
<path d="M51.8333 78.4372L53.2609 78.9738C55.3116 79.7446 55.8714 82.3821 54.3105 83.9194L50.2071 87.9607L47.0919 90.6147C45.1577 92.2625 42.2524 92.0237 40.6133 90.0821C39.7812 89.0965 39.7454 87.6651 40.5271 86.6391L44.009 82.0697C44.0805 81.9759 44.168 81.8954 44.2675 81.8321L49.1672 78.7143C49.9629 78.208 50.9504 78.1053 51.8333 78.4372Z" fill="#274B90" stroke="#274B90" stroke-width="3" stroke-linecap="round"/>
<path d="M56.8664 93.3222L53.9581 96.5442C52.5741 98.0775 50.1081 97.8634 49.0091 96.1144C48.393 95.1339 48.3717 93.8925 48.9539 92.8915L50.1409 90.8506C50.6113 90.0417 51.2391 89.3354 51.9872 88.7733L53.9641 87.288C55.1526 86.3951 56.6997 86.1322 58.1164 86.5824C60.1389 87.2252 60.7076 89.8161 59.1402 91.2468L56.8664 93.3222Z" fill="#274B90" stroke="#274B90" stroke-width="3" stroke-linecap="round"/>
<path d="M57.1378 97.8723L57.0925 97.2049C57.0533 96.6268 57.2088 96.0523 57.5344 95.573C58.0072 94.8769 58.7072 94.3668 59.5147 94.1299L60.7831 93.7578C63.2103 93.2215 64.876 96.1393 63.1802 97.9568L62.2174 98.9886C62.1915 99.0164 62.1686 99.0467 62.1491 99.0792C60.7884 101.347 57.3169 100.511 57.1378 97.8723Z" fill="#274B90" stroke="#274B90" stroke-width="3" stroke-linecap="round"/>
<defs>
<filter id="filter0_d_846_164" x="0" y="0" width="146" height="146" filterUnits="userSpaceOnUse" color-interpolation-filters="sRGB">
<feFlood flood-opacity="0" result="BackgroundImageFix"/>
<feColorMatrix in="SourceAlpha" type="matrix" values="0 0 0 0 0 0 0 0 0 0 0 0 0 0 0 0 0 0 127 0" result="hardAlpha"/>
<feOffset dy="6"/>
<feGaussianBlur stdDeviation="4"/>
<feComposite in2="hardAlpha" operator="out"/>
<feColorMatrix type="matrix" values="0 0 0 0 0.188235 0 0 0 0 0.364706 0 0 0 0 0.705882 0 0 0 0.1 0"/>
<feBlend mode="normal" in2="BackgroundImageFix" result="effect1_dropShadow_846_164"/>
<feBlend mode="normal" in="SourceGraphic" in2="effect1_dropShadow_846_164" result="shape"/>
</filter>
</defs>
</svg>
